<svg xmlns="http://www.w3.org/2000/svg" viewBox="0 0 500 500">

  <!-- ========== OUTER PETALS (3) ========== -->
  <g id="outer-petals">

    <g id="outer-petal-1">
      <path id="outer-petal-1-shape"
        d="M250,248 C226,188 220,132 230,78 C236,52 243,38 250,34 C257,38 264,52 270,78 C280,132 274,188 250,248Z"
        fill="#FEFDF8" stroke="#D5C5AD" stroke-width="0.8"/>
      <path id="outer-petal-1-vein"
        d="M250,242 C249,180 250,120 250,38"
        stroke="#BF946A" stroke-width="2.2" fill="none" opacity="0.55" stroke-linecap="round"/>
      <path id="outer-petal-1-vein-L"
        d="M250,200 Q240,150 237,90"
        stroke="#D0B898" stroke-width="0.6" fill="none" opacity="0.25"/>
      <path id="outer-petal-1-vein-R"
        d="M250,200 Q260,150 263,90"
        stroke="#D0B898" stroke-width="0.6" fill="none" opacity="0.25"/>
    </g>

    <g id="outer-petal-2" transform="rotate(120,250,250)">
      <path id="outer-petal-2-shape"
        d="M250,248 C226,188 220,132 230,78 C236,52 243,38 250,34 C257,38 264,52 270,78 C280,132 274,188 250,248Z"
        fill="#FEFDF8" stroke="#D5C5AD" stroke-width="0.8"/>
      <path id="outer-petal-2-vein"
        d="M250,242 C249,180 250,120 250,38"
        stroke="#BF946A" stroke-width="2.2" fill="none" opacity="0.55" stroke-linecap="round"/>
      <path id="outer-petal-2-vein-L"
        d="M250,200 Q240,150 237,90"
        stroke="#D0B898" stroke-width="0.6" fill="none" opacity="0.25"/>
      <path id="outer-petal-2-vein-R"
        d="M250,200 Q260,150 263,90"
        stroke="#D0B898" stroke-width="0.6" fill="none" opacity="0.25"/>
    </g>

    <g id="outer-petal-3" transform="rotate(240,250,250)">
      <path id="outer-petal-3-shape"
        d="M250,248 C226,188 220,132 230,78 C236,52 243,38 250,34 C257,38 264,52 270,78 C280,132 274,188 250,248Z"
        fill="#FEFDF8" stroke="#D5C5AD" stroke-width="0.8"/>
      <path id="outer-petal-3-vein"
        d="M250,242 C249,180 250,120 250,38"
        stroke="#BF946A" stroke-width="2.2" fill="none" opacity="0.55" stroke-linecap="round"/>
      <path id="outer-petal-3-vein-L"
        d="M250,200 Q240,150 237,90"
        stroke="#D0B898" stroke-width="0.6" fill="none" opacity="0.25"/>
      <path id="outer-petal-3-vein-R"
        d="M250,200 Q260,150 263,90"
        stroke="#D0B898" stroke-width="0.6" fill="none" opacity="0.25"/>
    </g>

  </g>

  <!-- ========== INNER PETALS (3) ========== -->
  <g id="inner-petals">

    <g id="inner-petal-1" transform="rotate(60,250,250)">
      <path id="inner-petal-1-shape"
        d="M250,248 C230,190 225,138 234,84 C239,58 244,44 250,40 C256,44 261,58 266,84 C275,138 270,190 250,248Z"
        fill="#FEFCF5" stroke="#D5C5AD" stroke-width="0.8"/>
      <path id="inner-petal-1-vein"
        d="M250,242 C249,182 250,124 250,44"
        stroke="#BF946A" stroke-width="2" fill="none" opacity="0.5" stroke-linecap="round"/>
      <path id="inner-petal-1-vein-L"
        d="M250,200 Q241,155 239,100"
        stroke="#D0B898" stroke-width="0.6" fill="none" opacity="0.22"/>
      <path id="inner-petal-1-vein-R"
        d="M250,200 Q259,155 261,100"
        stroke="#D0B898" stroke-width="0.6" fill="none" opacity="0.22"/>
    </g>

    <g id="inner-petal-2" transform="rotate(180,250,250)">
      <path id="inner-petal-2-shape"
        d="M250,248 C230,190 225,138 234,84 C239,58 244,44 250,40 C256,44 261,58 266,84 C275,138 270,190 250,248Z"
        fill="#FEFCF5" stroke="#D5C5AD" stroke-width="0.8"/>
      <path id="inner-petal-2-vein"
        d="M250,242 C249,182 250,124 250,44"
        stroke="#BF946A" stroke-width="2" fill="none" opacity="0.5" stroke-linecap="round"/>
      <path id="inner-petal-2-vein-L"
        d="M250,200 Q241,155 239,100"
        stroke="#D0B898" stroke-width="0.6" fill="none" opacity="0.22"/>
      <path id="inner-petal-2-vein-R"
        d="M250,200 Q259,155 261,100"
        stroke="#D0B898" stroke-width="0.6" fill="none" opacity="0.22"/>
    </g>

    <g id="inner-petal-3" transform="rotate(300,250,250)">
      <path id="inner-petal-3-shape"
        d="M250,248 C230,190 225,138 234,84 C239,58 244,44 250,40 C256,44 261,58 266,84 C275,138 270,190 250,248Z"
        fill="#FEFCF5" stroke="#D5C5AD" stroke-width="0.8"/>
      <path id="inner-petal-3-vein"
        d="M250,242 C249,182 250,124 250,44"
        stroke="#BF946A" stroke-width="2" fill="none" opacity="0.5" stroke-linecap="round"/>
      <path id="inner-petal-3-vein-L"
        d="M250,200 Q241,155 239,100"
        stroke="#D0B898" stroke-width="0.6" fill="none" opacity="0.22"/>
      <path id="inner-petal-3-vein-R"
        d="M250,200 Q259,155 261,100"
        stroke="#D0B898" stroke-width="0.6" fill="none" opacity="0.22"/>
    </g>

  </g>

  <!-- ========== STAMENS (6) ========== -->
  <g id="stamens">

    <g id="stamen-1" transform="rotate(30,250,250)">
      <path id="stamen-1-filament" d="M250,232 Q247,165 252,85"
            stroke="#DDD4C0" stroke-width="1.6" fill="none" stroke-linecap="round"/>
      <ellipse id="stamen-1-anther" cx="252" cy="80" rx="4.5" ry="9.5"
               fill="#E8C840" stroke="#C8A428" stroke-width="0.5"
               transform="rotate(-6,252,80)"/>
      <line x1="252" y1="70.5" x2="252" y2="89.5"
            stroke="#D4B030" stroke-width="0.4" opacity="0.6"
            transform="rotate(-6,252,80)"/>
    </g>

    <g id="stamen-2" transform="rotate(90,250,250)">
      <path id="stamen-2-filament" d="M250,232 Q253,165 248,85"
            stroke="#DDD4C0" stroke-width="1.6" fill="none" stroke-linecap="round"/>
      <ellipse id="stamen-2-anther" cx="248" cy="80" rx="4.5" ry="9.5"
               fill="#E8C840" stroke="#C8A428" stroke-width="0.5"
               transform="rotate(6,248,80)"/>
      <line x1="248" y1="70.5" x2="248" y2="89.5"
            stroke="#D4B030" stroke-width="0.4" opacity="0.6"
            transform="rotate(6,248,80)"/>
    </g>

    <g id="stamen-3" transform="rotate(150,250,250)">
      <path id="stamen-3-filament" d="M250,232 Q247,165 252,85"
            stroke="#DDD4C0" stroke-width="1.6" fill="none" stroke-linecap="round"/>
      <ellipse id="stamen-3-anther" cx="252" cy="80" rx="4.5" ry="9.5"
               fill="#E8C840" stroke="#C8A428" stroke-width="0.5"
               transform="rotate(-6,252,80)"/>
      <line x1="252" y1="70.5" x2="252" y2="89.5"
            stroke="#D4B030" stroke-width="0.4" opacity="0.6"
            transform="rotate(-6,252,80)"/>
    </g>

    <g id="stamen-4" transform="rotate(210,250,250)">
      <path id="stamen-4-filament" d="M250,232 Q253,165 248,85"
            stroke="#DDD4C0" stroke-width="1.6" fill="none" stroke-linecap="round"/>
      <ellipse id="stamen-4-anther" cx="248" cy="80" rx="4.5" ry="9.5"
               fill="#E8C840" stroke="#C8A428" stroke-width="0.5"
               transform="rotate(6,248,80)"/>
      <line x1="248" y1="70.5" x2="248" y2="89.5"
            stroke="#D4B030" stroke-width="0.4" opacity="0.6"
            transform="rotate(6,248,80)"/>
    </g>

    <g id="stamen-5" transform="rotate(270,250,250)">
      <path id="stamen-5-filament" d="M250,232 Q247,165 252,85"
            stroke="#DDD4C0" stroke-width="1.6" fill="none" stroke-linecap="round"/>
      <ellipse id="stamen-5-anther" cx="252" cy="80" rx="4.5" ry="9.5"
               fill="#E8C840" stroke="#C8A428" stroke-width="0.5"
               transform="rotate(-6,252,80)"/>
      <line x1="252" y1="70.5" x2="252" y2="89.5"
            stroke="#D4B030" stroke-width="0.4" opacity="0.6"
            transform="rotate(-6,252,80)"/>
    </g>

    <g id="stamen-6" transform="rotate(330,250,250)">
      <path id="stamen-6-filament" d="M250,232 Q253,165 248,85"
            stroke="#DDD4C0" stroke-width="1.6" fill="none" stroke-linecap="round"/>
      <ellipse id="stamen-6-anther" cx="248" cy="80" rx="4.5" ry="9.5"
               fill="#E8C840" stroke="#C8A428" stroke-width="0.5"
               transform="rotate(6,248,80)"/>
      <line x1="248" y1="70.5" x2="248" y2="89.5"
            stroke="#D4B030" stroke-width="0.4" opacity="0.6"
            transform="rotate(6,248,80)"/>
    </g>

  </g>

  <!-- ========== OVARY ========== -->
  <g id="ovary">
    <circle id="ovary-body" cx="250" cy="250" r="14"
            fill="#8FA848" stroke="#708030" stroke-width="1.2"/>
    <line x1="250" y1="236" x2="250" y2="264"
          stroke="#708030" stroke-width="0.6" opacity="0.4"/>
    <line x1="237.9" y1="243" x2="262.1" y2="257"
          stroke="#708030" stroke-width="0.6" opacity="0.4"/>
    <line x1="262.1" y1="243" x2="237.9" y2="257"
          stroke="#708030" stroke-width="0.6" opacity="0.4"/>
  </g>

  <!-- ========== PISTIL ========== -->
  <g id="pistil">
    <path id="pistil-style" d="M250,247 Q249,234 251,218"
          stroke="#7A9038" stroke-width="2.2" fill="none" stroke-linecap="round"/>
    <circle id="pistil-stigma" cx="251" cy="215" r="3.2"
            fill="#A0B848" stroke="#809838" stroke-width="0.8"/>
  </g>

</svg>
