<svg width="61" height="60" viewBox="0 0 61 60" fill="none" xmlns="http://www.w3.org/2000/svg">
<path d="M26.5163 35.2736C25.2539 35.709 23.8156 36.3177 22.3354 37.0929C22.1822 37.1835 22.0244 37.2675 21.8629 37.3454C15.0739 41.0448 7.71229 48.1998 12.5418 58.1809C19.9323 58.2773 32.7841 53.8549 26.5163 35.2736Z" fill="#D9D9D9"/>
<path d="M24.0418 30.1809C23.2284 28.6235 21.9775 26.9025 20.418 25.3367C20.2797 25.2128 20.1447 25.0811 20.0138 24.941C15.0787 20.2325 7.35147 17.2355 0.54187 25.1172C1.68029 30.333 7.10189 38.3423 18.6017 33.2864C19.1766 32.7945 19.8296 32.4963 20.5093 32.3552C21.6336 31.7536 22.8106 31.033 24.0418 30.1809Z" fill="#D9D9D9"/>
<path d="M24.8717 21.451C26.3564 23.1322 28.2371 24.382 30.0418 25.1172C32.4093 24.1513 34.1433 22.9778 35.3621 21.6665C35.3964 21.628 35.4315 21.5897 35.4673 21.5516C41.2617 15.1216 34.8971 5.46744 30.0418 0.680908C20.7517 8.75302 20.8389 15.6162 23.8537 20.1315C24.2366 20.5271 24.5818 20.9661 24.8717 21.451Z" fill="#D9D9D9"/>
<path d="M36.6186 36.8659C35.3647 36.2324 34.1485 35.6985 33.0418 35.2736C32.6474 37.2533 32.402 39.0757 32.2861 40.7519C32.351 41.3419 32.3348 41.9539 32.2094 42.5742C32.0194 56.3218 41.2111 59.1665 46.5418 58.6809C53.5835 49.7189 45.9411 42.1197 38.4215 37.834C37.7603 37.5979 37.1418 37.2789 36.6186 36.8659Z" fill="#D9D9D9"/>
<path d="M38.438 25.5739C37.1798 27.0387 36.188 28.6401 35.5418 30.1809C36.984 31.6231 38.3897 32.7292 39.7516 33.548C40.0164 33.6738 40.2786 33.8207 40.5355 33.9904C49.7475 38.8516 56.8449 30.6711 59.5418 25.1172C52.6462 17.729 45.4523 19.3533 40.59 23.4404C40.0584 24.2541 39.3547 25.0021 38.438 25.5739Z" fill="#D9D9D9"/>
<path d="M30.0418 25.1172C29.8636 25.131 29.6959 25.1528 29.5418 25.1809C27.6826 25.3668 26.3995 26.136 25.5419 27.0568C24.5544 28.117 24.131 29.3781 24.0418 30.1809C24.0418 31.4186 24.2857 32.417 24.679 33.2172C25.1379 34.1506 25.8002 34.8143 26.5163 35.2736C27.5668 35.9472 28.7328 36.1809 29.5418 36.1809C29.6985 36.1809 29.866 36.1746 30.0418 36.1612C30.9386 36.0925 32.0508 35.8368 33.0418 35.2736C33.8499 34.8143 34.5774 34.1506 35.0419 33.2172C35.44 32.417 35.645 31.4186 35.5418 30.1809C35.4288 28.8243 35.0468 27.8085 34.5156 27.0568C34.4213 26.9233 34.3223 26.7982 34.2192 26.6809C33.0215 25.3182 31.2786 25.0218 30.0418 25.1172Z" fill="#D9D9D9"/>
<path d="M38.4215 37.834C40.15 38.4509 42.1702 38.5009 43.5419 38.1809C42.8601 36.1264 41.7586 34.7987 40.5355 33.9904C40.2759 33.8534 40.0145 33.706 39.7516 33.548C38.0425 32.7357 36.2252 32.7976 35.0419 33.2172C34.9198 34.8598 35.5819 36.0474 36.6186 36.8659C37.2137 37.1665 37.8172 37.4895 38.4215 37.834Z" fill="#4D5C52"/>
<path d="M30.0418 36.1612C26.554 39.7792 28.2993 44.7836 30.0419 46.1809C31.3117 45.0134 31.9661 43.7781 32.2094 42.5742C32.2175 41.9869 32.2427 41.3796 32.2861 40.7519C32.0752 38.834 31.0068 37.148 30.0418 36.1612Z" fill="#48565C"/>
<path d="M16.5419 38.1809C17.9895 38.3012 20.1365 38.1774 21.8629 37.3454C22.0208 37.2594 22.1784 37.1752 22.3354 37.0929C23.6169 36.3351 24.5768 35.1173 24.679 33.2172C23.4896 32.4584 21.9402 32.0584 20.5093 32.3552C19.8557 32.705 19.2199 33.0146 18.6017 33.2864C17.5455 34.1899 16.7529 35.7465 16.5419 38.1809Z" fill="#5D5866"/>
<path d="M35.3621 21.6665C33.8058 23.4112 33.8057 25.4464 34.2192 26.6809C35.9691 26.6809 37.3528 26.2508 38.438 25.5739C39.0879 24.8173 39.8089 24.0971 40.59 23.4404C41.6455 21.8251 42.0229 19.9507 42.0419 18.6809C38.7004 19.1821 36.659 20.2823 35.4673 21.5516C35.4327 21.59 35.3976 21.6283 35.3621 21.6665Z" fill="#5E5741"/>
<path d="M20.418 25.3367C22.0405 26.7901 24.1219 27.161 25.5419 27.0568C26.107 24.7351 25.7323 22.8904 24.8717 21.451C24.506 21.0369 24.1643 20.5966 23.8537 20.1315C22.1553 18.3765 19.7132 17.4728 18.0419 17.1809C17.677 21.0122 18.6158 23.4463 20.0138 24.941C20.1507 25.0717 20.2855 25.2036 20.418 25.3367Z" fill="#67565A"/>
<path d="M35.5418 30.1809C35.4288 28.8243 35.0468 27.8085 34.5156 27.0568C34.4213 26.9233 34.3223 26.7982 34.2192 26.6809M35.5418 30.1809C35.645 31.4186 35.44 32.417 35.0419 33.2172M35.5418 30.1809C36.188 28.6401 37.1798 27.0387 38.438 25.5739M35.5418 30.1809C36.984 31.6231 38.3897 32.7292 39.7516 33.548M24.0418 30.1809C24.131 29.3781 24.5544 28.117 25.5419 27.0568M24.0418 30.1809C24.0418 31.4186 24.2857 32.417 24.679 33.2172M24.0418 30.1809C23.2284 28.6235 21.9775 26.9025 20.418 25.3367M24.0418 30.1809C22.8106 31.033 21.6336 31.7536 20.5093 32.3552M30.0418 25.1172C29.8636 25.131 29.6959 25.1528 29.5418 25.1809C27.6826 25.3668 26.3995 26.136 25.5419 27.0568M30.0418 25.1172C31.2786 25.0218 33.0215 25.3182 34.2192 26.6809M30.0418 25.1172C28.2371 24.382 26.3564 23.1322 24.8717 21.451M30.0418 25.1172C32.4093 24.1513 34.1433 22.9778 35.3621 21.6665M33.0418 35.2736C33.8499 34.8143 34.5774 34.1506 35.0419 33.2172M33.0418 35.2736C32.0508 35.8368 30.9386 36.0925 30.0418 36.1612M33.0418 35.2736C34.1485 35.6985 35.3647 36.2324 36.6186 36.8659M33.0418 35.2736C32.6474 37.2533 32.402 39.0757 32.2861 40.7519M26.5163 35.2736C27.5668 35.9472 28.7328 36.1809 29.5418 36.1809C29.6985 36.1809 29.866 36.1746 30.0418 36.1612M26.5163 35.2736C32.7841 53.8549 19.9323 58.2773 12.5418 58.1809C7.71229 48.1998 15.0739 41.0448 21.8629 37.3454M26.5163 35.2736C25.8002 34.8143 25.1379 34.1506 24.679 33.2172M26.5163 35.2736C25.2539 35.709 23.8156 36.3177 22.3354 37.0929M25.5419 27.0568C24.1219 27.161 22.0405 26.7901 20.418 25.3367M25.5419 27.0568C26.107 24.7351 25.7323 22.8904 24.8717 21.451M34.2192 26.6809C33.8057 25.4464 33.8058 23.4112 35.3621 21.6665M34.2192 26.6809C35.9691 26.6809 37.3528 26.2508 38.438 25.5739M35.0419 33.2172C34.9198 34.8598 35.5819 36.0474 36.6186 36.8659M35.0419 33.2172C36.2252 32.7976 38.0425 32.7357 39.7516 33.548M24.679 33.2172C24.5768 35.1173 23.6169 36.3351 22.3354 37.0929M24.679 33.2172C23.4896 32.4584 21.9402 32.0584 20.5093 32.3552M30.0418 36.1612C26.554 39.7792 28.2993 44.7836 30.0419 46.1809C31.3117 45.0134 31.9661 43.7781 32.2094 42.5742M30.0418 36.1612C31.0068 37.148 32.0752 38.834 32.2861 40.7519M22.3354 37.0929C22.1822 37.1835 22.0244 37.2675 21.8629 37.3454M22.3354 37.0929C22.1784 37.1752 22.0208 37.2594 21.8629 37.3454M21.8629 37.3454C20.1365 38.1774 17.9895 38.3012 16.5419 38.1809C16.7529 35.7465 17.5455 34.1899 18.6017 33.2864M20.418 25.3367C20.2797 25.2128 20.1447 25.0811 20.0138 24.941M20.418 25.3367C20.2855 25.2036 20.1507 25.0717 20.0138 24.941M20.0138 24.941C15.0787 20.2325 7.35147 17.2355 0.54187 25.1172C1.68029 30.333 7.10189 38.3423 18.6017 33.2864M20.0138 24.941C18.6158 23.4463 17.677 21.0122 18.0419 17.1809C19.7132 17.4728 22.1553 18.3765 23.8537 20.1315M18.6017 33.2864C19.1766 32.7945 19.8296 32.4963 20.5093 32.3552M18.6017 33.2864C19.2199 33.0146 19.8557 32.705 20.5093 32.3552M24.8717 21.451C24.5818 20.9661 24.2366 20.5271 23.8537 20.1315M24.8717 21.451C24.506 21.0369 24.1643 20.5966 23.8537 20.1315M35.3621 21.6665C35.3964 21.628 35.4315 21.5897 35.4673 21.5516M35.3621 21.6665C35.3976 21.6283 35.4327 21.59 35.4673 21.5516M35.4673 21.5516C41.2617 15.1216 34.8971 5.46744 30.0418 0.680908C20.7517 8.75302 20.8389 15.6162 23.8537 20.1315M35.4673 21.5516C36.659 20.2823 38.7004 19.1821 42.0419 18.6809C42.0229 19.9507 41.6455 21.8251 40.59 23.4404M36.6186 36.8659C37.1418 37.2789 37.7603 37.5979 38.4215 37.834M36.6186 36.8659C37.2137 37.1665 37.8172 37.4895 38.4215 37.834M32.2861 40.7519C32.351 41.3419 32.3348 41.9539 32.2094 42.5742M32.2861 40.7519C32.2427 41.3796 32.2175 41.9869 32.2094 42.5742M32.2094 42.5742C32.0194 56.3218 41.2111 59.1665 46.5418 58.6809C53.5835 49.7189 45.9411 42.1197 38.4215 37.834M38.4215 37.834C40.15 38.4509 42.1702 38.5009 43.5419 38.1809C42.8601 36.1264 41.7586 34.7987 40.5355 33.9904M38.438 25.5739C39.3547 25.0021 40.0584 24.2541 40.59 23.4404M38.438 25.5739C39.0879 24.8173 39.8089 24.0971 40.59 23.4404M39.7516 33.548C40.0164 33.6738 40.2786 33.8207 40.5355 33.9904M39.7516 33.548C40.0145 33.706 40.2759 33.8534 40.5355 33.9904M40.5355 33.9904C49.7475 38.8516 56.8449 30.6711 59.5418 25.1172C52.6462 17.729 45.4523 19.3533 40.59 23.4404" stroke="white"/>
</svg>
