<svg width="34" height="33" viewBox="0 0 34 33" fill="none" xmlns="http://www.w3.org/2000/svg">
<path d="M19.5557 16.4427C21.7252 13.3049 27.3658 8.37123 32.5726 13.7386C30.8551 17.2211 25.8472 22.6373 19.5557 16.4427ZM19.5557 16.4427C19.4944 15.7183 19.2872 15.1758 18.9991 14.7744C18.9479 14.7031 18.8942 14.6363 18.8383 14.5737M19.5557 16.4427C19.6116 17.1037 19.5005 17.6369 19.2845 18.0641M13.3184 16.4427C11.0585 13.2159 5.34552 8.15763 0.572632 13.7386C1.92855 17.3101 6.37599 22.8509 13.3184 16.4427ZM13.3184 16.4427C13.3668 16.014 13.5964 15.3406 14.132 14.7744M13.3184 16.4427C13.3184 17.1037 13.4506 17.6369 13.664 18.0641M16.5726 13.7386C16.476 13.746 16.385 13.7577 16.3014 13.7726C15.293 13.8719 14.5971 14.2827 14.132 14.7744M16.5726 13.7386C13.4992 12.0589 9.19634 7.09742 16.5726 0.689209C19.3749 3.60363 23.298 10.2937 16.5726 13.7386ZM16.5726 13.7386C17.2434 13.6877 18.1887 13.846 18.8383 14.5737M18.1997 19.1623C22.6291 20.8369 30.2947 25.6812 25.5218 31.6622C22.1771 31.9622 16.0303 29.8823 18.1997 19.1623ZM18.1997 19.1623C18.638 18.9171 19.0326 18.5626 19.2845 18.0641M18.1997 19.1623C17.6622 19.4631 17.059 19.5996 16.5726 19.6363M14.6605 19.1623C15.2302 19.522 15.8626 19.6468 16.3014 19.6468C16.3864 19.6468 16.4773 19.6435 16.5726 19.6363M14.6605 19.1623C10.7781 20.4809 3.82686 24.7734 7.0811 31.3952C11.3205 31.4282 18.7714 29.0278 14.6605 19.1623ZM14.6605 19.1623C14.2721 18.9171 13.9128 18.5626 13.664 18.0641M14.132 14.7744C12.5952 14.8855 9.63026 13.9863 10.0642 9.5005C11.7817 9.79583 14.9998 11.2641 14.132 14.7744ZM18.8383 14.5737C18.4447 13.4166 18.7421 10.9424 23.0811 10.3015C23.0595 11.7256 22.1806 14.5737 18.8383 14.5737ZM19.2845 18.0641C20.3693 17.8797 22.8099 18.1516 23.8947 20.7149C22.2676 20.7278 19.0676 20.2157 19.2845 18.0641ZM13.664 18.0641C12.464 17.7907 9.90145 17.938 9.2506 20.7149C10.6317 20.8509 13.4478 20.5112 13.664 18.0641ZM16.5726 19.6363C17.3862 20.5298 18.5252 22.851 16.5726 24.987C15.8495 23.912 14.837 21.3367 16.5726 19.6363Z" stroke="white"/>
</svg>
