<svg width="261" height="261" viewBox="0 0 261 261" fill="none" xmlns="http://www.w3.org/2000/svg">
<path d="M154.139 132.893C171.495 106.981 216.62 66.238 258.274 110.562C244.534 139.32 204.471 184.048 154.139 132.893ZM154.139 132.893C153.648 126.91 151.991 122.431 149.686 119.116C149.277 118.527 148.847 117.975 148.4 117.458M154.139 132.893C154.586 138.351 153.697 142.754 151.969 146.283M104.24 132.893C86.1614 106.246 40.4575 64.474 2.27441 110.562C13.1218 140.055 48.7013 185.812 104.24 132.893ZM104.24 132.893C104.627 129.352 106.464 123.791 110.749 119.116M104.24 132.893C104.24 138.351 105.298 142.754 107.005 146.283M130.274 110.562C129.501 110.623 128.773 110.719 128.105 110.843C120.038 111.663 114.47 115.055 110.749 119.116M130.274 110.562C105.687 96.6911 71.2641 55.7188 130.274 2.79932C152.692 26.8668 184.078 82.1138 130.274 110.562ZM130.274 110.562C135.641 110.141 143.203 111.449 148.4 117.458M143.291 155.351C178.726 169.18 240.051 209.185 201.868 258.577C175.111 261.054 125.935 243.877 143.291 155.351ZM143.291 155.351C146.797 153.326 149.954 150.399 151.969 146.283M143.291 155.351C138.991 157.835 134.166 158.963 130.274 159.266M114.977 155.351C119.535 158.322 124.594 159.353 128.105 159.353C128.785 159.353 129.512 159.325 130.274 159.266M114.977 155.351C83.9181 166.24 28.3082 201.688 54.3421 256.372C88.257 256.644 147.865 236.821 114.977 155.351ZM114.977 155.351C111.87 153.326 108.996 150.399 107.005 146.283M110.749 119.116C98.4553 120.033 74.7355 112.607 78.2067 75.5636C91.9468 78.0024 117.691 90.1272 110.749 119.116ZM148.4 117.458C145.251 107.903 147.63 87.4704 182.342 82.1785C182.169 93.9384 175.138 117.458 148.4 117.458ZM151.969 146.283C160.647 144.759 180.173 147.005 188.851 168.173C175.834 168.279 150.234 164.05 151.969 146.283ZM107.005 146.283C97.4055 144.024 76.905 145.241 71.6982 168.173C82.7467 169.296 105.276 166.491 107.005 146.283ZM130.274 159.266C136.783 166.645 145.895 185.812 130.274 203.452C124.489 194.574 116.389 173.308 130.274 159.266Z" stroke="white" stroke-width="4"/>
</svg>
