<svg width="61" height="60" viewBox="0 0 61 60" fill="none" xmlns="http://www.w3.org/2000/svg">
<path d="M35.5706 30.1943C39.5706 24.3185 49.9707 15.0797 59.5707 25.1306C56.404 31.6518 47.1706 41.7943 35.5706 30.1943ZM35.5706 30.1943C35.4576 28.8377 35.0756 27.8219 34.5444 27.0702C34.4501 26.9367 34.3511 26.8116 34.248 26.6943M35.5706 30.1943C35.6738 31.4321 35.4688 32.4304 35.0707 33.2306M24.0706 30.1943C19.904 24.1518 9.37068 14.6797 0.570679 25.1306C3.07065 31.8185 11.2706 42.1943 24.0706 30.1943ZM24.0706 30.1943C24.1598 29.3915 24.5832 28.1304 25.5707 27.0702M24.0706 30.1943C24.0706 31.4321 24.3145 32.4304 24.7078 33.2306M30.0706 25.1306C29.8924 25.1444 29.7247 25.1663 29.5706 25.1943C27.7114 25.3802 26.4283 26.1494 25.5707 27.0702M30.0706 25.1306C24.404 21.9852 16.4706 12.6943 30.0706 0.694336C35.2373 6.15187 42.4706 18.6797 30.0706 25.1306ZM30.0706 25.1306C31.3074 25.0352 33.0503 25.3317 34.248 26.6943M33.0707 35.287C41.2373 38.4228 55.3707 47.4943 46.5707 58.6943C40.404 59.2561 29.0707 55.3611 33.0707 35.287ZM33.0707 35.287C33.8787 34.8278 34.6062 34.1641 35.0707 33.2306M33.0707 35.287C32.0796 35.8502 30.9674 36.1059 30.0706 36.1746M26.5451 35.287C27.5956 35.9606 28.7616 36.1943 29.5706 36.1943C29.7273 36.1943 29.8949 36.1881 30.0706 36.1746M26.5451 35.287C19.387 37.7561 6.57065 45.7943 12.5707 58.1943C20.387 58.2561 34.1247 53.7611 26.5451 35.287ZM26.5451 35.287C25.829 34.8278 25.1667 34.1641 24.7078 33.2306M25.5707 27.0702C22.7373 27.2783 17.2707 25.5943 18.0707 17.1943C21.2373 17.7474 27.1707 20.4968 25.5707 27.0702ZM34.248 26.6943C33.5222 24.5277 34.0707 19.8943 42.0707 18.6943C42.0308 21.361 40.4103 26.6943 34.248 26.6943ZM35.0707 33.2306C37.0707 32.8852 41.5707 33.3943 43.5707 38.1943C40.5707 38.2185 34.6707 37.2596 35.0707 33.2306ZM24.7078 33.2306C22.4954 32.7185 17.7707 32.9943 16.5707 38.1943C19.117 38.4491 24.3093 37.813 24.7078 33.2306ZM30.0706 36.1746C31.5707 37.8478 33.6707 42.1943 30.0707 46.1943C28.7373 44.1812 26.8706 39.3588 30.0706 36.1746Z" stroke="white"/>
</svg>
